<svg width="24" height="24" viewBox="0 0 24 24" fill="none" xmlns="http://www.w3.org/2000/svg">
<path fill-rule="evenodd" clip-rule="evenodd" d="M9.15788 14.9535C5.83788 14.9535 3.15788 12.2735 3.15788 8.95348C3.15788 5.63348 5.83788 2.95348 9.15788 2.95348C12.4779 2.95348 15.1579 5.63348 15.1579 8.95348C15.1579 12.2735 12.4779 14.9535 9.15788 14.9535ZM17.1579 14.9535H16.1045L15.7312 14.5935C17.0379 13.0735 17.8245 11.1001 17.8245 8.95348C17.8245 4.16681 13.9445 0.286812 9.15788 0.286812C4.37121 0.286812 0.491211 4.16681 0.491211 8.95348C0.491211 13.7401 4.37121 17.6201 9.15788 17.6201C11.3045 17.6201 13.2779 16.8335 14.7979 15.5268L15.1579 15.9001V16.9535L21.8245 23.6068L23.8112 21.6201L17.1579 14.9535Z" fill="white"/>
</svg>
