<svg width="25" height="17" viewBox="0 0 25 17" fill="none" xmlns="http://www.w3.org/2000/svg">
<path d="M23.7513 16.429C23.5727 16.429 23.4033 16.329 23.3207 16.1636C23.2927 16.109 21.0873 12.0196 11.8833 11.881V15.9476C11.8833 16.1303 11.7793 16.2983 11.614 16.3796C11.45 16.4596 11.2553 16.441 11.1087 16.3303L1.02332 8.60096C0.904651 8.50896 0.833984 8.36896 0.833984 8.21962C0.833984 8.06896 0.904651 7.92762 1.02332 7.83696L11.11 0.107622C11.2553 -0.00304413 11.4513 -0.0230446 11.6153 0.0582905C11.7793 0.13829 11.8833 0.30629 11.8833 0.488956V4.77562C12.1273 4.75962 12.4447 4.74629 12.818 4.74629C16.25 4.74629 24.2327 5.83829 24.2327 15.9463C24.2327 16.1703 24.0793 16.365 23.8607 16.4156C23.8247 16.425 23.7887 16.429 23.7513 16.429Z" fill="#143980"/>
</svg>
