<svg width="34" height="34" viewBox="0 0 34 34" fill="none" xmlns="http://www.w3.org/2000/svg">
<path d="M18.7612 18.8808C27.3146 9.87545 13.2119 -2.25388 5.56389 7.02878C-1.64011 15.7715 11.1532 26.8914 18.7612 18.8808ZM24.8239 21.6954C24.9306 21.7808 25.0199 22.0541 25.1799 22.2074C27.8639 24.7621 30.3919 27.4874 33.0479 30.0714C33.1959 30.4194 33.1972 30.9888 33.0492 31.3368C33.0065 31.4354 31.7639 32.8114 31.6252 32.9314C31.0052 33.4648 30.0746 33.6421 29.4746 33.0114C27.3306 30.3421 23.5892 27.8021 21.6092 25.1461C20.8906 24.1834 21.4799 23.8408 21.2999 23.3994C21.1799 23.1074 20.2519 22.4728 20.0239 22.1301C12.9906 27.9821 1.99855 23.8381 0.449218 14.8488C-1.40812 4.08078 10.5746 -3.59655 19.5172 2.77012C25.2506 6.85145 26.1612 14.7194 22.0079 20.2994C22.0066 20.5008 22.7986 21.3301 22.9652 21.4061C23.5186 21.6568 24.3159 21.2848 24.8239 21.6954Z" fill="#545456"/>
</svg>
